<svg width="48" height="47" viewBox="0 0 48 47" fill="none" xmlns="http://www.w3.org/2000/svg">
<g id="Union">
<path fill-rule="evenodd" clip-rule="evenodd" d="M13.0309 4.7835C13.0309 7.42536 10.8893 9.56701 8.24742 9.56701C5.60557 9.56701 3.46392 7.42536 3.46392 4.7835C3.46392 2.14165 5.60557 0 8.24742 0C10.8893 0 13.0309 2.14165 13.0309 4.7835ZM11.7113 4.7835C11.7113 6.69657 10.1605 8.24742 8.24742 8.24742C6.33435 8.24742 4.7835 6.69657 4.7835 4.7835C4.7835 2.87044 6.33435 1.31959 8.24742 1.31959C10.1605 1.31959 11.7113 2.87044 11.7113 4.7835Z" fill="#E8EBFF"/>
<path fill-rule="evenodd" clip-rule="evenodd" d="M45.9381 12.0412C47.0769 12.0412 48 11.1181 48 9.97938C48 8.84065 47.0769 7.91753 45.9381 7.91753C44.7994 7.91753 43.8763 8.84065 43.8763 9.97938C43.8763 11.1181 44.7994 12.0412 45.9381 12.0412ZM45.9381 11.0515C46.5303 11.0515 47.0103 10.5715 47.0103 9.97938C47.0103 9.38724 46.5303 8.90722 45.9381 8.90722C45.346 8.90722 44.866 9.38724 44.866 9.97938C44.866 10.5715 45.346 11.0515 45.9381 11.0515Z" fill="#E8EBFF"/>
<path fill-rule="evenodd" clip-rule="evenodd" d="M44.866 39.7526C45.9592 39.7526 46.8454 38.8664 46.8454 37.7732C46.8454 36.68 45.9592 35.7938 44.866 35.7938C43.7728 35.7938 42.8866 36.68 42.8866 37.7732C42.8866 38.8664 43.7728 39.7526 44.866 39.7526ZM44.866 38.7629C45.4126 38.7629 45.8557 38.3198 45.8557 37.7732C45.8557 37.2266 45.4126 36.7835 44.866 36.7835C44.3194 36.7835 43.8763 37.2266 43.8763 37.7732C43.8763 38.3198 44.3194 38.7629 44.866 38.7629Z" fill="#E8EBFF"/>
<path d="M43.8763 17.1546C44.514 17.1546 45.0309 16.6377 45.0309 16C45.0309 15.3623 44.514 14.8454 43.8763 14.8454C43.2386 14.8454 42.7216 15.3623 42.7216 16C42.7216 16.6377 43.2386 17.1546 43.8763 17.1546Z" fill="#E8EBFF"/>
<path d="M2.30928 34.9691C2.30928 35.6068 1.79233 36.1237 1.15464 36.1237C0.51695 36.1237 0 35.6068 0 34.9691C0 34.3314 0.51695 33.8144 1.15464 33.8144C1.79233 33.8144 2.30928 34.3314 2.30928 34.9691Z" fill="#E8EBFF"/>
<path fill-rule="evenodd" clip-rule="evenodd" d="M16 27.2165C16 28.9474 14.5969 30.3505 12.866 30.3505C11.1351 30.3505 9.73196 28.9474 9.73196 27.2165C9.73196 25.4856 11.1351 24.0825 12.866 24.0825C14.5969 24.0825 16 25.4856 16 27.2165ZM14.6804 27.2165C14.6804 28.2186 13.8681 29.0309 12.866 29.0309C11.8639 29.0309 11.0515 28.2186 11.0515 27.2165C11.0515 26.2144 11.8639 25.4021 12.866 25.4021C13.8681 25.4021 14.6804 26.2144 14.6804 27.2165Z" fill="#E8EBFF"/>
<path d="M28.0412 12.701C28.0412 13.3387 27.5243 13.8557 26.8866 13.8557C26.2489 13.8557 25.732 13.3387 25.732 12.701C25.732 12.0633 26.2489 11.5464 26.8866 11.5464C27.5243 11.5464 28.0412 12.0633 28.0412 12.701Z" fill="#E8EBFF"/>
<path d="M17.9794 32.9897C18.6171 32.9897 19.134 32.4727 19.134 31.8351C19.134 31.1974 18.6171 30.6804 17.9794 30.6804C17.3417 30.6804 16.8247 31.1974 16.8247 31.8351C16.8247 32.4727 17.3417 32.9897 17.9794 32.9897Z" fill="#E8EBFF"/>
<path fill-rule="evenodd" clip-rule="evenodd" d="M23.0928 47C31.9979 47 39.5179 40.9153 41.9195 32.7888C44.5038 31.1413 46.0206 29.1344 46.0206 26.9691C46.0206 24.7503 44.428 22.6979 41.7262 21.0281C41.4279 20.1293 41.0663 19.2594 40.6469 18.4236C41.4967 15.1621 41.2114 12.4355 39.578 10.802C37.9521 9.17615 35.2433 8.88599 32.002 9.72126C29.3282 8.357 26.3004 7.58763 23.0928 7.58763C14.2644 7.58763 6.79732 13.4159 4.32931 21.4347C2.00855 23.0263 0.659794 24.9272 0.659794 26.9691C0.659794 28.9577 1.93909 30.8126 4.14967 32.3783C4.59557 34.0185 5.24882 35.5734 6.07954 37.013C5.73671 39.4916 6.17282 41.5467 7.50302 42.8769C8.8408 44.2147 10.9118 44.6482 13.4094 44.2945C16.2667 45.9181 19.5715 47 23.0928 47ZM35.2165 30.1856C36.9018 30.1856 38.268 28.8193 38.268 27.134C38.268 26.4321 38.031 25.7855 37.6327 25.2699L36.8903 24.5821C36.4097 24.2662 35.8346 24.0825 35.2165 24.0825C33.5312 24.0825 32.1649 25.4487 32.1649 27.134C32.1649 28.1336 32.6455 29.0208 33.3882 29.5774L34.286 30.0411C34.286 30.0411 34.892 30.1856 35.2165 30.1856ZM39.2577 27.134C39.2577 26.0615 38.8399 25.0866 38.1582 24.3631C38.936 22.9735 39.5698 21.6151 40.0481 20.3177L40.4731 21.4428C41.0758 23.2579 41.4021 25.1991 41.4021 27.2165C41.4021 29.0134 41.1432 30.7499 40.6607 32.3906C40.1406 32.6852 39.5775 32.9686 38.9736 33.2388C36.2375 34.4625 32.7451 35.3751 28.8107 35.8205C29.4508 35.2431 30.0861 34.6401 30.7136 34.0126C31.7516 32.9746 32.7225 31.9155 33.6213 30.8482C34.1107 31.0587 34.65 31.1753 35.2165 31.1753C37.4484 31.1753 39.2577 29.3659 39.2577 27.134ZM30.0138 33.3128C30.9912 32.3353 31.9064 31.3405 32.7553 30.3396C31.7945 29.6008 31.1753 28.4397 31.1753 27.134C31.1753 24.9021 32.9846 23.0928 35.2165 23.0928C36.0134 23.0928 36.7564 23.3234 37.3825 23.7217C38.0479 22.5175 38.599 21.3425 39.0283 20.2183C39.1881 19.8 39.3302 19.3907 39.4549 18.9912C37.707 15.521 34.8876 12.683 31.4313 10.9119L30.1282 10.3077C27.9622 9.40542 25.5857 8.90722 23.0928 8.90722C15.4335 8.90722 8.87264 13.6103 6.14059 20.2862C6.12849 20.3157 6.11646 20.3454 6.1045 20.375L5.60004 21.7932C5.06932 23.5069 4.7835 25.3283 4.7835 27.2165C4.7835 28.885 5.00668 30.5013 5.42481 32.0373C5.95618 32.3685 6.53971 32.6875 7.17283 32.9914L8.07593 33.4C11.9976 35.0733 17.3727 36.1237 23.3402 36.1237C24.6336 36.1237 25.8991 36.0744 27.128 35.98C28.0994 35.152 29.0648 34.2618 30.0138 33.3128ZM15.4481 43.8583C17.7746 44.9288 20.364 45.5258 23.0928 45.5258C30.9013 45.5258 37.5681 40.6377 40.2002 33.7545C36.9355 35.3763 32.5177 36.5246 27.5244 36.9411C23.3707 40.4343 19.0935 42.8362 15.4481 43.8583ZM25.8219 37.0534C22.761 39.4765 19.6865 41.2705 16.9194 42.3273C15.9253 42.7069 14.9817 42.9873 14.1009 43.1694C11.2313 41.5484 7.20253 36.3183 7.20253 36.3183L6.50742 34.9827C6.27143 34.4796 6.05766 33.964 5.86737 33.4372C6.1777 33.6047 6.49985 33.7677 6.83324 33.9259L7.74059 34.3329C11.8058 36.0563 17.297 37.1134 23.3402 37.1134C24.1789 37.1134 25.0069 37.093 25.8219 37.0534ZM33.3004 10.4472C36.011 12.1007 38.2894 14.393 39.9263 17.1149C40.075 16.3122 40.1395 15.5646 40.1205 14.882C40.0788 13.3892 39.6424 12.266 38.8782 11.5018C38.1139 10.7376 36.9908 10.3012 35.4979 10.2595C34.8253 10.2407 34.0896 10.3031 33.3004 10.4472ZM6.95874 38.3993C8.3233 40.3643 10.0376 42.0681 12.0116 43.4206C11.8661 43.4237 11.7232 43.4233 11.5831 43.4194C10.0902 43.3777 8.96706 42.9413 8.20284 42.1771C7.43861 41.4129 7.00223 40.2898 6.96053 38.7969C6.95689 38.6667 6.95629 38.5341 6.95874 38.3993ZM43.5192 23.7004C43.1336 23.2927 42.6771 22.8939 42.1533 22.508C42.5247 24.0164 42.7216 25.5935 42.7216 27.2165C42.7216 28.6265 42.573 30.0019 42.2904 31.3276C42.7572 30.9738 43.1677 30.6094 43.5192 30.2377C44.5453 29.1526 45.0309 28.0498 45.0309 26.9691C45.0309 25.8883 44.5453 24.7855 43.5192 23.7004ZM3.16122 23.7004C3.38982 23.4587 3.64336 23.2201 3.92108 22.9855C3.62171 24.3481 3.46392 25.7639 3.46392 27.2165C3.46392 28.4573 3.57905 29.6712 3.7992 30.8481C3.56876 30.6473 3.35594 30.4436 3.16122 30.2377C2.13509 29.1526 1.64948 28.0498 1.64948 26.9691C1.64948 25.8883 2.13509 24.7855 3.16122 23.7004Z" fill="#E8EBFF"/>
</g>
</svg>
